<mxfile host="app.diagrams.net" modified="2022-04-10T09:15:38.074Z" agent="5.0 (Windows NT 10.0; Win64; x64) AppleWebKit/537.36 (KHTML, like Gecko) Chrome/100.0.4896.75 Safari/537.36" etag="aUjj3GnIXisvHwAhoAqg" version="17.4.2" type="github">
  <diagram id="t8jLZpME2FRf261Ox9BI" name="Page-1">
    <mxGraphModel dx="1582" dy="925" grid="1" gridSize="10" guides="1" tooltips="1" connect="1" arrows="1" fold="1" page="1" pageScale="1" pageWidth="827" pageHeight="1169" math="0" shadow="0">
      <root>
        <mxCell id="0" />
        <mxCell id="1" parent="0" />
        <mxCell id="IUjfA274XiTZ8R5IMJOk-18" style="edgeStyle=orthogonalEdgeStyle;rounded=0;orthogonalLoop=1;jettySize=auto;html=1;entryX=0;entryY=0.5;entryDx=0;entryDy=0;fontSize=17;" parent="1" source="tWs4NPSTxIWH6wR3upc7-1" target="IUjfA274XiTZ8R5IMJOk-17" edge="1">
          <mxGeometry relative="1" as="geometry" />
        </mxCell>
        <mxCell id="tWs4NPSTxIWH6wR3upc7-1" value="&lt;font style=&quot;font-size: 19px;&quot;&gt;정보 확인&lt;/font&gt;" style="whiteSpace=wrap;html=1;aspect=fixed;fontSize=19;" parent="1" vertex="1">
          <mxGeometry x="369" y="165" width="90" height="90" as="geometry" />
        </mxCell>
        <mxCell id="ItUZ5gXeRA-rxZpXjLuS-3" value="" style="endArrow=classic;html=1;rounded=0;fontSize=13;entryX=0.5;entryY=1;entryDx=0;entryDy=0;exitX=0.5;exitY=0;exitDx=0;exitDy=0;" parent="1" source="ItUZ5gXeRA-rxZpXjLuS-11" target="tWs4NPSTxIWH6wR3upc7-1" edge="1">
          <mxGeometry width="50" height="50" relative="1" as="geometry">
            <mxPoint x="414" y="368" as="sourcePoint" />
            <mxPoint x="414.5" y="270" as="targetPoint" />
          </mxGeometry>
        </mxCell>
        <mxCell id="ItUZ5gXeRA-rxZpXjLuS-4" value="" style="endArrow=classic;html=1;rounded=0;fontSize=13;entryX=0.5;entryY=1;entryDx=0;entryDy=0;exitX=0.5;exitY=0;exitDx=0;exitDy=0;" parent="1" source="ItUZ5gXeRA-rxZpXjLuS-12" target="ItUZ5gXeRA-rxZpXjLuS-11" edge="1">
          <mxGeometry width="50" height="50" relative="1" as="geometry">
            <mxPoint x="414" y="890" as="sourcePoint" />
            <mxPoint x="414" y="782" as="targetPoint" />
          </mxGeometry>
        </mxCell>
        <mxCell id="ItUZ5gXeRA-rxZpXjLuS-5" value="&lt;span style=&quot;font-size: 21px&quot;&gt;&lt;b&gt;App&lt;/b&gt;&lt;/span&gt;" style="text;html=1;align=center;verticalAlign=middle;resizable=0;points=[];autosize=1;strokeColor=none;fillColor=none;fontSize=13;" parent="1" vertex="1">
          <mxGeometry x="90" y="200" width="60" height="20" as="geometry" />
        </mxCell>
        <mxCell id="ItUZ5gXeRA-rxZpXjLuS-7" value="&lt;span style=&quot;font-size: 21px&quot;&gt;&lt;b&gt;PHP&lt;/b&gt;&lt;/span&gt;" style="text;html=1;align=center;verticalAlign=middle;resizable=0;points=[];autosize=1;strokeColor=none;fillColor=none;fontSize=13;" parent="1" vertex="1">
          <mxGeometry x="80" y="730" width="60" height="20" as="geometry" />
        </mxCell>
        <mxCell id="ItUZ5gXeRA-rxZpXjLuS-8" value="&lt;span style=&quot;font-size: 21px&quot;&gt;&lt;b&gt;DB&lt;/b&gt;&lt;/span&gt;" style="text;html=1;align=center;verticalAlign=middle;resizable=0;points=[];autosize=1;strokeColor=none;fillColor=none;fontSize=13;" parent="1" vertex="1">
          <mxGeometry x="80" y="940" width="50" height="20" as="geometry" />
        </mxCell>
        <mxCell id="ItUZ5gXeRA-rxZpXjLuS-9" value="&lt;font style=&quot;font-size: 21px&quot;&gt;&lt;b&gt;Diagram 0&lt;/b&gt;&lt;br&gt;혼잡도&lt;/font&gt;" style="text;html=1;align=center;verticalAlign=middle;resizable=0;points=[];autosize=1;strokeColor=none;fillColor=none;fontSize=13;" parent="1" vertex="1">
          <mxGeometry x="60" y="60" width="120" height="40" as="geometry" />
        </mxCell>
        <mxCell id="ItUZ5gXeRA-rxZpXjLuS-11" value="&lt;span style=&quot;color: rgb(0 , 0 , 0) ; font-family: &amp;#34;helvetica&amp;#34; ; font-size: 19px ; font-style: normal ; font-weight: 400 ; letter-spacing: normal ; text-align: center ; text-indent: 0px ; text-transform: none ; word-spacing: 0px ; background-color: rgb(248 , 249 , 250) ; display: inline ; float: none&quot;&gt;&quot;현재 이용중인 좌석/전체 좌석&quot; 형태로 &lt;br&gt;출력&lt;/span&gt;" style="rounded=0;whiteSpace=wrap;html=1;fontSize=19;" parent="1" vertex="1">
          <mxGeometry x="322" y="690" width="188" height="110" as="geometry" />
        </mxCell>
        <mxCell id="ItUZ5gXeRA-rxZpXjLuS-12" value="&#xa;&#xa;&lt;span style=&quot;color: rgb(0, 0, 0); font-family: helvetica; font-size: 19px; font-style: normal; font-weight: 400; letter-spacing: normal; text-align: center; text-indent: 0px; text-transform: none; word-spacing: 0px; background-color: rgb(248, 249, 250); display: inline; float: none;&quot;&gt;예약 내역에서 예약된 좌석수 정보 전달&lt;/span&gt;&#xa;&#xa;" style="rounded=0;whiteSpace=wrap;html=1;fontSize=19;" parent="1" vertex="1">
          <mxGeometry x="324" y="915" width="180" height="80" as="geometry" />
        </mxCell>
        <mxCell id="IUjfA274XiTZ8R5IMJOk-3" style="edgeStyle=orthogonalEdgeStyle;rounded=0;orthogonalLoop=1;jettySize=auto;html=1;" parent="1" source="IUjfA274XiTZ8R5IMJOk-2" target="tWs4NPSTxIWH6wR3upc7-1" edge="1">
          <mxGeometry relative="1" as="geometry" />
        </mxCell>
        <mxCell id="IUjfA274XiTZ8R5IMJOk-2" value="&lt;font style=&quot;font-size: 19px&quot;&gt;혼잡도&lt;br&gt;보기&lt;br&gt;&lt;/font&gt;" style="whiteSpace=wrap;html=1;aspect=fixed;fontSize=19;" parent="1" vertex="1">
          <mxGeometry x="220" y="165" width="90" height="90" as="geometry" />
        </mxCell>
        <mxCell id="IUjfA274XiTZ8R5IMJOk-9" value="N" style="edgeStyle=orthogonalEdgeStyle;rounded=0;orthogonalLoop=1;jettySize=auto;html=1;exitX=0.5;exitY=1;exitDx=0;exitDy=0;entryX=0.5;entryY=0;entryDx=0;entryDy=0;" parent="1" source="IUjfA274XiTZ8R5IMJOk-6" target="IUjfA274XiTZ8R5IMJOk-11" edge="1">
          <mxGeometry relative="1" as="geometry">
            <mxPoint x="1288.857142857143" y="282.5" as="targetPoint" />
          </mxGeometry>
        </mxCell>
        <mxCell id="IUjfA274XiTZ8R5IMJOk-10" value="Y" style="edgeStyle=orthogonalEdgeStyle;rounded=0;orthogonalLoop=1;jettySize=auto;html=1;exitX=1;exitY=0.5;exitDx=0;exitDy=0;" parent="1" source="IUjfA274XiTZ8R5IMJOk-6" target="IUjfA274XiTZ8R5IMJOk-14" edge="1">
          <mxGeometry x="0.4477" relative="1" as="geometry">
            <mxPoint x="1399" y="282.5" as="targetPoint" />
            <mxPoint y="1" as="offset" />
          </mxGeometry>
        </mxCell>
        <mxCell id="IUjfA274XiTZ8R5IMJOk-6" value="2분 안에&lt;br&gt;새로고침 한 적이 &lt;br&gt;있나?" style="rhombus;whiteSpace=wrap;html=1;" parent="1" vertex="1">
          <mxGeometry x="1226.5" y="140" width="125" height="125" as="geometry" />
        </mxCell>
        <mxCell id="IUjfA274XiTZ8R5IMJOk-11" value="&lt;font style=&quot;font-size: 19px&quot;&gt;새로고침 가능&lt;br&gt;&lt;/font&gt;" style="whiteSpace=wrap;html=1;aspect=fixed;fontSize=19;" parent="1" vertex="1">
          <mxGeometry x="1244" y="402.5" width="90" height="90" as="geometry" />
        </mxCell>
        <mxCell id="IUjfA274XiTZ8R5IMJOk-13" style="edgeStyle=orthogonalEdgeStyle;rounded=0;orthogonalLoop=1;jettySize=auto;html=1;" parent="1" source="IUjfA274XiTZ8R5IMJOk-12" target="IUjfA274XiTZ8R5IMJOk-6" edge="1">
          <mxGeometry relative="1" as="geometry" />
        </mxCell>
        <mxCell id="IUjfA274XiTZ8R5IMJOk-12" value="&lt;font style=&quot;font-size: 19px&quot;&gt;새로고침&lt;br&gt;버튼&lt;br&gt;누른다&lt;br&gt;&lt;/font&gt;" style="whiteSpace=wrap;html=1;aspect=fixed;fontSize=19;" parent="1" vertex="1">
          <mxGeometry x="1100" y="157.5" width="90" height="90" as="geometry" />
        </mxCell>
        <mxCell id="IUjfA274XiTZ8R5IMJOk-14" value="&lt;font style=&quot;font-size: 19px&quot;&gt;새로고침 불가능&lt;br&gt;&lt;/font&gt;" style="whiteSpace=wrap;html=1;aspect=fixed;fontSize=19;" parent="1" vertex="1">
          <mxGeometry x="1360" y="402.5" width="90" height="90" as="geometry" />
        </mxCell>
        <mxCell id="IUjfA274XiTZ8R5IMJOk-19" value="N" style="edgeStyle=orthogonalEdgeStyle;rounded=0;orthogonalLoop=1;jettySize=auto;html=1;fontSize=17;" parent="1" source="IUjfA274XiTZ8R5IMJOk-17" target="IUjfA274XiTZ8R5IMJOk-20" edge="1">
          <mxGeometry relative="1" as="geometry">
            <mxPoint x="620" y="460" as="targetPoint" />
          </mxGeometry>
        </mxCell>
        <mxCell id="IUjfA274XiTZ8R5IMJOk-21" value="Y" style="edgeStyle=orthogonalEdgeStyle;rounded=0;orthogonalLoop=1;jettySize=auto;html=1;fontSize=20;" parent="1" source="IUjfA274XiTZ8R5IMJOk-17" target="IUjfA274XiTZ8R5IMJOk-22" edge="1">
          <mxGeometry x="0.6944" relative="1" as="geometry">
            <mxPoint x="760" y="400" as="targetPoint" />
            <mxPoint as="offset" />
          </mxGeometry>
        </mxCell>
        <mxCell id="IUjfA274XiTZ8R5IMJOk-17" value="&lt;font style=&quot;font-size: 17px&quot;&gt;if&lt;/font&gt;&lt;br&gt;&lt;span style=&quot;color: rgb(0 , 0 , 0) ; font-family: &amp;#34;helvetica&amp;#34; ; font-size: 19px ; font-style: normal ; font-weight: 400 ; letter-spacing: normal ; text-align: center ; text-indent: 0px ; text-transform: none ; word-spacing: 0px ; background-color: rgb(248 , 249 , 250) ; display: inline ; float: none&quot;&gt;이용 가능 좌석 &lt;br&gt;=&amp;lt;110&lt;/span&gt;" style="rhombus;whiteSpace=wrap;html=1;shadow=0;glass=0;sketch=0;" parent="1" vertex="1">
          <mxGeometry x="540" y="130" width="160" height="160" as="geometry" />
        </mxCell>
        <mxCell id="IUjfA274XiTZ8R5IMJOk-20" value="&lt;font style=&quot;font-size: 20px&quot;&gt;예약 진행&lt;/font&gt;" style="rounded=0;whiteSpace=wrap;html=1;shadow=0;glass=0;sketch=0;fontSize=17;" parent="1" vertex="1">
          <mxGeometry x="640" y="402.5" width="120" height="110" as="geometry" />
        </mxCell>
        <mxCell id="IUjfA274XiTZ8R5IMJOk-22" value="&quot;학식당이 혼잡합니다.&quot; 메시지와 주변 1km 이내 음식점 정보 전달" style="rounded=0;whiteSpace=wrap;html=1;shadow=0;glass=0;sketch=0;fontSize=20;" parent="1" vertex="1">
          <mxGeometry x="790" y="402.5" width="223" height="190" as="geometry" />
        </mxCell>
      </root>
    </mxGraphModel>
  </diagram>
</mxfile>
